# xmcd
#
# Track frame offsets:
# 150
# 11417
# 28055
# 42327
# 59537
# 73680
# 85030
# 103315
# 117910
# 132182
#
# Disc length: 1943 seconds
#
# Revision: 1
# Processed by: cddbd v1.5.1PL0 Copyright (c) Steve Scherf et al.
# Submitted via: inCDius 2.0b9
#
DISCID=8607950a
DTITLE=Various Artist - On The Road Again
DYEAR=1900
DGENRE=
TTITLE0=On The Road Again
TTITLE1=Back Roads
TTITLE2=I Love A Rainy Night
TTITLE3=Any Ole Stretch Of Blacktop Shenandoah
TTITLE4=Love Will Keep Your Hand On The Wheel
TTITLE5=The one I loved Back Then (The Corvette Song)
TTITLE6=One Piece At A Time
TTITLE7=Road Song
TTITLE8=Highway 40 Blues
TTITLE9=The lady In The Blue Mercedes
EXTD=
EXTT0=Willie Nelson
EXTT1=Ricky Van Shelton
EXTT2=Shenandoah
EXTT3=Vern Gosdin
EXTT4=George Jones
EXTT5=Johnny Cash
EXTT6=Charlie Rich
EXTT7=Ricky Skaggs
EXTT8=Johnny Duncan
EXTT9=
PLAYORDER=
